<svg xmlns="http://www.w3.org/2000/svg" viewBox="0 0 100 100" width="100" height="100">
  <g fill="#27AE60">
    <rect x="15" y="10" width="70" height="8" rx="4" />
    <rect x="15" y="82" width="70" height="8" rx="4" />
    <rect x="22" y="15" width="8" height="70" />
    <rect x="70" y="15" width="8" height="70" />
  </g>
  <path fill="#27AE60" fill-rule="evenodd" d="
    M36,20 h8 a4,4 0 0,1 4,4 v8 a4,4 0 0,1 -4,4 h-8 a4,4 0 0,1 -4,-4 v-8 a4,4 0 0,1 4,-4 Z M38,26 h4 v4 h-4 Z
    M56,20 h8 a4,4 0 0,1 4,4 v8 a4,4 0 0,1 -4,4 h-8 a4,4 0 0,1 -4,-4 v-8 a4,4 0 0,1 4,-4 Z M58,26 h4 v4 h-4 Z
    M36,42 h8 a4,4 0 0,1 4,4 v8 a4,4 0 0,1 -4,4 h-8 a4,4 0 0,1 -4,-4 v-8 a4,4 0 0,1 4,-4 Z M38,48 h4 v4 h-4 Z
    M56,42 h8 a4,4 0 0,1 4,4 v8 a4,4 0 0,1 -4,4 h-8 a4,4 0 0,1 -4,-4 v-8 a4,4 0 0,1 4,-4 Z M58,48 h4 v4 h-4 Z
    M36,64 h8 a4,4 0 0,1 4,4 v8 a4,4 0 0,1 -4,4 h-8 a4,4 0 0,1 -4,-4 v-8 a4,4 0 0,1 4,-4 Z M38,70 h4 v4 h-4 Z
    M56,64 h8 a4,4 0 0,1 4,4 v8 a4,4 0 0,1 -4,4 h-8 a4,4 0 0,1 -4,-4 v-8 a4,4 0 0,1 4,-4 Z M58,70 h4 v4 h-4 Z
  "/>
</svg>
