<svg width="36" height="37" xmlns="http://www.w3.org/2000/svg" xmlns:xlink="http://www.w3.org/1999/xlink" xml:space="preserve" overflow="hidden"><g transform="translate(-49 -540)"><path d="M24.375 10.875 22.125 10.875 22.125 8.625 24.375 8.625 24.375 10.875ZM24.375 16.875 22.125 16.875 22.125 14.625 24.375 14.625 24.375 16.875ZM24.375 22.875 22.125 22.875 22.125 20.625 24.375 20.625 24.375 22.875ZM24.375 28.875 22.125 28.875 22.125 26.625 24.375 26.625 24.375 28.875ZM19.125 10.875 16.875 10.875 16.875 8.625 19.125 8.625 19.125 10.875ZM19.125 16.875 16.875 16.875 16.875 14.625 19.125 14.625 19.125 16.875ZM19.125 22.875 16.875 22.875 16.875 20.625 19.125 20.625 19.125 22.875ZM19.125 31.125 16.875 31.125 16.875 26.625 19.125 26.625 19.125 31.125ZM13.875 10.875 11.625 10.875 11.625 8.625 13.875 8.625 13.875 10.875ZM13.875 16.875 11.625 16.875 11.625 14.625 13.875 14.625 13.875 16.875ZM13.875 22.875 11.625 22.875 11.625 20.625 13.875 20.625 13.875 22.875ZM13.875 28.875 11.625 28.875 11.625 26.625 13.875 26.625 13.875 28.875ZM27 31.125 27 6 25.875 6 25.875 3.75 24.75 3.75 24.75 2.25 11.25 2.25 11.25 3.75 10.125 3.75 10.125 6 9 6 9 31.125 7.5 31.125 7.5 33.75 28.5 33.75 28.5 31.125 27 31.125Z" fill="#E37400" transform="matrix(1 0 0 1.02778 49 540)"/></g></svg>
