<svg width="58" height="58" xmlns="http://www.w3.org/2000/svg" xmlns:xlink="http://www.w3.org/1999/xlink" xml:space="preserve" overflow="hidden"><g transform="translate(-370 -218)"><path d="M409.271 235.521 405.646 235.521 405.646 231.896 409.271 231.896 409.271 235.521ZM409.271 245.188 405.646 245.188 405.646 241.562 409.271 241.562 409.271 245.188ZM409.271 254.854 405.646 254.854 405.646 251.229 409.271 251.229 409.271 254.854ZM409.271 264.521 405.646 264.521 405.646 260.896 409.271 260.896 409.271 264.521ZM400.812 235.521 397.188 235.521 397.188 231.896 400.812 231.896 400.812 235.521ZM400.812 245.188 397.188 245.188 397.188 241.562 400.812 241.562 400.812 245.188ZM400.812 254.854 397.188 254.854 397.188 251.229 400.812 251.229 400.812 254.854ZM400.812 268.146 397.188 268.146 397.188 260.896 400.812 260.896 400.812 268.146ZM392.354 235.521 388.729 235.521 388.729 231.896 392.354 231.896 392.354 235.521ZM392.354 245.188 388.729 245.188 388.729 241.562 392.354 241.562 392.354 245.188ZM392.354 254.854 388.729 254.854 388.729 251.229 392.354 251.229 392.354 254.854ZM392.354 264.521 388.729 264.521 388.729 260.896 392.354 260.896 392.354 264.521ZM413.5 268.146 413.5 227.667 411.688 227.667 411.688 224.042 409.875 224.042 409.875 221.625 388.125 221.625 388.125 224.042 386.312 224.042 386.312 227.667 384.5 227.667 384.5 268.146 382.083 268.146 382.083 272.375 415.917 272.375 415.917 268.146 413.5 268.146Z" fill="#EA4335"/></g></svg>