<svg width="58" height="58" xmlns="http://www.w3.org/2000/svg" xmlns:xlink="http://www.w3.org/1999/xlink" xml:space="preserve" overflow="hidden"><g transform="translate(-370 -286)"><path d="M409.271 303.521 405.646 303.521 405.646 299.896 409.271 299.896 409.271 303.521ZM409.271 313.188 405.646 313.188 405.646 309.562 409.271 309.562 409.271 313.188ZM409.271 322.854 405.646 322.854 405.646 319.229 409.271 319.229 409.271 322.854ZM409.271 332.521 405.646 332.521 405.646 328.896 409.271 328.896 409.271 332.521ZM400.812 303.521 397.188 303.521 397.188 299.896 400.812 299.896 400.812 303.521ZM400.812 313.188 397.188 313.188 397.188 309.562 400.812 309.562 400.812 313.188ZM400.812 322.854 397.188 322.854 397.188 319.229 400.812 319.229 400.812 322.854ZM400.812 336.146 397.188 336.146 397.188 328.896 400.812 328.896 400.812 336.146ZM392.354 303.521 388.729 303.521 388.729 299.896 392.354 299.896 392.354 303.521ZM392.354 313.188 388.729 313.188 388.729 309.562 392.354 309.562 392.354 313.188ZM392.354 322.854 388.729 322.854 388.729 319.229 392.354 319.229 392.354 322.854ZM392.354 332.521 388.729 332.521 388.729 328.896 392.354 328.896 392.354 332.521ZM413.5 336.146 413.5 295.667 411.688 295.667 411.688 292.042 409.875 292.042 409.875 289.625 388.125 289.625 388.125 292.042 386.312 292.042 386.312 295.667 384.5 295.667 384.5 336.146 382.083 336.146 382.083 340.375 415.917 340.375 415.917 336.146 413.5 336.146Z" fill="#4285F4"/></g></svg>