<svg width="36" height="36" xmlns="http://www.w3.org/2000/svg" xmlns:xlink="http://www.w3.org/1999/xlink" xml:space="preserve" overflow="hidden"><g transform="translate(-49 -582)"><path d="M73.375 592.875 71.125 592.875 71.125 590.625 73.375 590.625 73.375 592.875ZM73.375 598.875 71.125 598.875 71.125 596.625 73.375 596.625 73.375 598.875ZM73.375 604.875 71.125 604.875 71.125 602.625 73.375 602.625 73.375 604.875ZM73.375 610.875 71.125 610.875 71.125 608.625 73.375 608.625 73.375 610.875ZM68.125 592.875 65.875 592.875 65.875 590.625 68.125 590.625 68.125 592.875ZM68.125 598.875 65.875 598.875 65.875 596.625 68.125 596.625 68.125 598.875ZM68.125 604.875 65.875 604.875 65.875 602.625 68.125 602.625 68.125 604.875ZM68.125 613.125 65.875 613.125 65.875 608.625 68.125 608.625 68.125 613.125ZM62.875 592.875 60.625 592.875 60.625 590.625 62.875 590.625 62.875 592.875ZM62.875 598.875 60.625 598.875 60.625 596.625 62.875 596.625 62.875 598.875ZM62.875 604.875 60.625 604.875 60.625 602.625 62.875 602.625 62.875 604.875ZM62.875 610.875 60.625 610.875 60.625 608.625 62.875 608.625 62.875 610.875ZM76 613.125 76 588 74.875 588 74.875 585.75 73.75 585.75 73.75 584.25 60.25 584.25 60.25 585.75 59.125 585.75 59.125 588 58 588 58 613.125 56.5 613.125 56.5 615.75 77.5 615.75 77.5 613.125 76 613.125Z" fill="#681DA8"/></g></svg>
