<svg width="50" height="50" xmlns="http://www.w3.org/2000/svg" xmlns:xlink="http://www.w3.org/1999/xlink" xml:space="preserve" overflow="hidden"><g transform="translate(-378 -423)"><path d="M421.75 454.25 413.417 454.25 413.417 450.083 421.75 450.083 421.75 454.25ZM398.625 436.021 398.312 433.469 409.042 436.021 398.625 436.021ZM390.344 436.021 394.042 434.146 393.833 436.021 390.344 436.021ZM393.677 465.708 393.885 463.625 398.521 463.625 398.729 465.708 393.677 465.708ZM394.406 459.458 398.104 459.458 398.312 461.542 394.146 461.542 394.406 459.458ZM394.875 455.292 397.635 455.292 397.844 457.375 394.615 457.375 394.875 455.292ZM395.292 451.125 397.115 451.125 397.323 453.208 395.031 453.208 395.292 451.125ZM395.76 446.958 396.646 446.958 396.854 449.042 395.5 449.042 395.76 446.958ZM396.229 442.896 396.438 444.875 395.969 444.875 396.229 442.896ZM418.625 448 418.625 439.146 422.271 439.146C423.052 439.146 423.729 438.573 423.833 437.792 423.938 437.01 423.417 436.281 422.635 436.073L397.948 430.135 397.792 428.573C397.688 427.74 397.01 427.167 396.229 427.167 395.448 427.167 394.771 427.74 394.667 428.573L394.458 430.5 383 436.229C382.375 436.542 382.01 437.271 382.167 438 382.375 438.625 383 439.146 383.729 439.146L393.521 439.146 390.552 465.708 385.292 465.708 385.292 468.833 407.167 468.833 407.167 465.708 401.906 465.708 398.938 439.146 416.542 439.146 416.542 448 411.333 448 411.333 456.333 423.833 456.333 423.833 448 418.625 448Z" fill="#1E8E3E"/></g></svg>