<svg width="31" height="31" xmlns="http://www.w3.org/2000/svg" xmlns:xlink="http://www.w3.org/1999/xlink" xml:space="preserve" overflow="hidden"><g transform="translate(-52 -661)"><path d="M79.125 680.375 73.9583 680.375 73.9583 677.792 79.125 677.792 79.125 680.375ZM64.7875 669.073 64.5938 667.491 71.2458 669.073 64.7875 669.073ZM59.6531 669.073 61.9458 667.91 61.8167 669.073 59.6531 669.073ZM61.7198 687.479 61.849 686.188 64.7229 686.188 64.8521 687.479 61.7198 687.479ZM62.1719 683.604 64.4646 683.604 64.5938 684.896 62.0104 684.896 62.1719 683.604ZM62.4625 681.021 64.174 681.021 64.3031 682.312 62.301 682.312 62.4625 681.021ZM62.7208 678.438 63.851 678.438 63.9802 679.729 62.5594 679.729 62.7208 678.438ZM63.0115 675.854 63.5604 675.854 63.6896 677.146 62.85 677.146 63.0115 675.854ZM63.3021 673.335 63.4313 674.562 63.1406 674.562 63.3021 673.335ZM77.1875 676.5 77.1875 671.01 79.4479 671.01C79.9323 671.01 80.3521 670.655 80.4167 670.171 80.4812 669.686 80.1583 669.234 79.674 669.105L64.3677 665.424 64.2708 664.455C64.2063 663.939 63.7865 663.583 63.3021 663.583 62.8177 663.583 62.3979 663.939 62.3333 664.455L62.2042 665.65 55.1 669.202C54.7125 669.396 54.4865 669.848 54.5833 670.3 54.7125 670.688 55.1 671.01 55.5521 671.01L61.6229 671.01 59.7823 687.479 56.5208 687.479 56.5208 689.417 70.0833 689.417 70.0833 687.479 66.8219 687.479 64.9812 671.01 75.8958 671.01 75.8958 676.5 72.6667 676.5 72.6667 681.667 80.4167 681.667 80.4167 676.5 77.1875 676.5Z" fill="#A02B93"/></g></svg>