<svg width="827" height="2280" xmlns="http://www.w3.org/2000/svg" xmlns:xlink="http://www.w3.org/1999/xlink" xml:space="preserve" overflow="hidden"><g transform="translate(-149 -149)"><path d="M149.5 163.427C149.5 155.735 155.735 149.5 163.427 149.5L961.573 149.5C969.265 149.5 975.5 155.735 975.5 163.427L975.5 2414.57C975.5 2422.26 969.265 2428.5 961.573 2428.5L163.427 2428.5C155.735 2428.5 149.5 2422.26 149.5 2414.57Z" stroke="#D1D1D1" stroke-width="1.14583" stroke-miterlimit="8" fill="#FFFFFF" fill-rule="evenodd"/><g><g><g><path d="M92.7499 66.2499 75.0832 66.2499 75.0832 57.4166 92.7499 57.4166 92.7499 66.2499ZM43.7249 27.6041 43.0624 22.1937 65.8083 27.6041 43.7249 27.6041ZM26.1687 27.6041 34.0083 23.6291 33.5666 27.6041 26.1687 27.6041ZM33.2354 90.5416 33.677 86.1249 43.5041 86.1249 43.9458 90.5416 33.2354 90.5416ZM34.7812 77.2916 42.6208 77.2916 43.0624 81.7082 34.2291 81.7082 34.7812 77.2916ZM35.775 68.4583 41.627 68.4583 42.0687 72.8749 35.2229 72.8749 35.775 68.4583ZM36.6583 59.6249 40.5229 59.6249 40.9645 64.0416 36.1062 64.0416 36.6583 59.6249ZM37.652 50.7916 39.5291 50.7916 39.9708 55.2083 37.1 55.2083 37.652 50.7916ZM38.6458 42.1791 39.0875 46.3749 38.0937 46.3749 38.6458 42.1791ZM86.1249 52.9999 86.1249 34.2291 93.854 34.2291C95.5103 34.2291 96.9457 33.0145 97.1665 31.3583 97.3874 29.702 96.2832 28.1562 94.627 27.7146L42.2895 15.1271 41.9583 11.8146C41.7374 10.0479 40.302 8.83332 38.6458 8.83332 36.9895 8.83332 35.5541 10.0479 35.3333 11.8146L34.8916 15.9 10.6 28.0458C9.27499 28.7083 8.50207 30.2541 8.83332 31.8 9.27499 33.125 10.6 34.2291 12.1458 34.2291L32.9041 34.2291 26.6104 90.5416 15.4583 90.5416 15.4583 97.1665 61.8333 97.1665 61.8333 90.5416 50.6812 90.5416 44.3874 34.2291 81.7082 34.2291 81.7082 52.9999 70.6666 52.9999 70.6666 70.6666 97.1665 70.6666 97.1665 52.9999 86.1249 52.9999Z" fill="#0D652D" transform="matrix(1 0 0 1.00943 178 2146)"/></g></g></g></g></svg>
