<svg width="31" height="31" xmlns="http://www.w3.org/2000/svg" xmlns:xlink="http://www.w3.org/1999/xlink" xml:space="preserve" overflow="hidden"><g transform="translate(-52 -624)"><path d="M79.125 643.375 73.9583 643.375 73.9583 640.792 79.125 640.792 79.125 643.375ZM64.7875 632.073 64.5938 630.491 71.2458 632.073 64.7875 632.073ZM59.6531 632.073 61.9458 630.91 61.8167 632.073 59.6531 632.073ZM61.7198 650.479 61.849 649.188 64.7229 649.188 64.8521 650.479 61.7198 650.479ZM62.1719 646.604 64.4646 646.604 64.5938 647.896 62.0104 647.896 62.1719 646.604ZM62.4625 644.021 64.174 644.021 64.3031 645.312 62.301 645.312 62.4625 644.021ZM62.7208 641.438 63.851 641.438 63.9802 642.729 62.5594 642.729 62.7208 641.438ZM63.0115 638.854 63.5604 638.854 63.6896 640.146 62.85 640.146 63.0115 638.854ZM63.3021 636.335 63.4313 637.562 63.1406 637.562 63.3021 636.335ZM77.1875 639.5 77.1875 634.01 79.4479 634.01C79.9323 634.01 80.3521 633.655 80.4167 633.171 80.4812 632.686 80.1583 632.234 79.674 632.105L64.3677 628.424 64.2708 627.455C64.2063 626.939 63.7865 626.583 63.3021 626.583 62.8177 626.583 62.3979 626.939 62.3333 627.455L62.2042 628.65 55.1 632.202C54.7125 632.396 54.4865 632.848 54.5833 633.3 54.7125 633.688 55.1 634.01 55.5521 634.01L61.6229 634.01 59.7823 650.479 56.5208 650.479 56.5208 652.417 70.0833 652.417 70.0833 650.479 66.8219 650.479 64.9812 634.01 75.8958 634.01 75.8958 639.5 72.6667 639.5 72.6667 644.667 80.4167 644.667 80.4167 639.5 77.1875 639.5Z" fill="#E97132"/></g></svg>