<svg width="50" height="50" xmlns="http://www.w3.org/2000/svg" xmlns:xlink="http://www.w3.org/1999/xlink" xml:space="preserve" overflow="hidden"><g transform="translate(-378 -357)"><path d="M421.75 388.25 413.417 388.25 413.417 384.083 421.75 384.083 421.75 388.25ZM398.625 370.021 398.312 367.469 409.042 370.021 398.625 370.021ZM390.344 370.021 394.042 368.146 393.833 370.021 390.344 370.021ZM393.677 399.708 393.885 397.625 398.521 397.625 398.729 399.708 393.677 399.708ZM394.406 393.458 398.104 393.458 398.312 395.542 394.146 395.542 394.406 393.458ZM394.875 389.292 397.635 389.292 397.844 391.375 394.615 391.375 394.875 389.292ZM395.292 385.125 397.115 385.125 397.323 387.208 395.031 387.208 395.292 385.125ZM395.76 380.958 396.646 380.958 396.854 383.042 395.5 383.042 395.76 380.958ZM396.229 376.896 396.438 378.875 395.969 378.875 396.229 376.896ZM418.625 382 418.625 373.146 422.271 373.146C423.052 373.146 423.729 372.573 423.833 371.792 423.938 371.01 423.417 370.281 422.635 370.073L397.948 364.135 397.792 362.573C397.688 361.74 397.01 361.167 396.229 361.167 395.448 361.167 394.771 361.74 394.667 362.573L394.458 364.5 383 370.229C382.375 370.542 382.01 371.271 382.167 372 382.375 372.625 383 373.146 383.729 373.146L393.521 373.146 390.552 399.708 385.292 399.708 385.292 402.833 407.167 402.833 407.167 399.708 401.906 399.708 398.938 373.146 416.542 373.146 416.542 382 411.333 382 411.333 390.333 423.833 390.333 423.833 382 418.625 382Z" fill="#FBBC05"/></g></svg>